<?xml version="1.0" standalone="no"?>
<!DOCTYPE svg PUBLIC "-//W3C//DTD SVG 20010904//EN"
 "http://www.w3.org/TR/2001/REC-SVG-20010904/DTD/svg10.dtd">
<svg version="1.0" xmlns="http://www.w3.org/2000/svg"
 width="561.000000pt" height="561.000000pt" viewBox="0 0 561.000000 561.000000"
 preserveAspectRatio="xMidYMid meet">

<g transform="translate(0.000000,561.000000) scale(0.100000,-0.100000)"
fill="#000000" stroke="none">
<path d="M0 4120 l0 -1490 36 0 c31 0 36 -3 31 -19 -3 -11 2 -29 10 -40 13
-20 12 -21 -31 -33 l-46 -12 0 -1263 0 -1263 2189 0 c1742 0 2191 3 2195 13 5
9 7 9 12 0 4 -10 110 -13 480 -13 401 0 473 2 468 14 -3 8 0 17 6 21 7 4 14
-2 17 -14 5 -20 12 -21 124 -21 l119 0 0 1745 c0 1157 -3 1745 -10 1745 -5 0
-10 5 -10 11 0 5 5 7 10 4 7 -4 10 348 10 1049 l0 1056 -2805 0 -2805 0 0
-1490z m4965 1430 c3 -5 1 -10 -4 -10 -6 0 -11 5 -11 10 0 6 2 10 4 10 3 0 8
-4 11 -10z m-1460 -120 c3 -5 1 -10 -4 -10 -6 0 -11 5 -11 10 0 6 2 10 4 10 3
0 8 -4 11 -10z m-527 -77 c2 -8 -5 -13 -17 -13 -12 0 -21 6 -21 16 0 18 31 15
38 -3z m1252 -53 c0 -5 -4 -10 -9 -10 -6 0 -13 5 -16 10 -3 6 1 10 9 10 9 0
16 -4 16 -10z m-2540 -120 c0 -5 -4 -10 -10 -10 -5 0 -10 5 -10 10 0 6 5 10
10 10 6 0 10 -4 10 -10z m1952 -195 c0 -5 -5 -11 -11 -13 -6 -2 -11 4 -11 13
0 9 5 15 11 13 6 -2 11 -8 11 -13z m-632 -15 c0 -5 -4 -10 -10 -10 -5 0 -10 5
-10 10 0 6 5 10 10 10 6 0 10 -4 10 -10z m-1465 -80 c3 -5 -1 -10 -10 -10 -9
0 -13 5 -10 10 3 6 8 10 10 10 2 0 7 -4 10 -10z m3275 -100 c0 -5 -4 -10 -10
-10 -5 0 -10 5 -10 10 0 6 5 10 10 10 6 0 10 -4 10 -10z m-3660 -31 c0 -5 -7
-9 -15 -9 -15 0 -20 12 -9 23 8 8 24 -1 24 -14z m3987 -95 c-9 -9 -28 6 -21
18 4 6 10 6 17 -1 6 -6 8 -13 4 -17z m-1667 -20 c0 -8 -5 -12 -10 -9 -6 4 -8
11 -5 16 9 14 15 11 15 -7z m-1544 -55 c10 -17 -13 -36 -27 -22 -12 12 -4 33
11 33 5 0 12 -5 16 -11z m594 -219 c0 -5 -4 -10 -10 -10 -5 0 -10 5 -10 10 0
6 5 10 10 10 6 0 10 -4 10 -10z m-1480 -20 c0 -5 -4 -10 -10 -10 -5 0 -10 5
-10 10 0 6 5 10 10 10 6 0 10 -4 10 -10z m2926 -27 c-10 -10 -19 5 -10 18 6
11 8 11 12 0 2 -7 1 -15 -2 -18z m1154 -98 c0 -8 -4 -15 -10 -15 -5 0 -10 7
-10 15 0 8 5 15 10 15 6 0 10 -7 10 -15z m-4940 -29 c0 -3 -4 -8 -10 -11 -5
-3 -10 -1 -10 4 0 6 5 11 10 11 6 0 10 -2 10 -4z m4120 -27 c0 -10 -34 -12
-43 -2 -4 3 -2 12 4 20 9 10 15 10 25 2 8 -6 14 -15 14 -20z m740 21 c0 -5 -4
-10 -10 -10 -5 0 -10 5 -10 10 0 6 5 10 10 10 6 0 10 -4 10 -10z m-532 -37 c2
-8 -5 -13 -17 -13 -12 0 -21 6 -21 16 0 18 31 15 38 -3z m-2571 -89 c-9 -9
-28 6 -21 18 4 6 10 6 17 -1 6 -6 8 -13 4 -17z m313 16 c0 -5 -7 -10 -15 -10
-8 0 -15 5 -15 10 0 6 7 10 15 10 8 0 15 -4 15 -10z m1293 -6 c11 -12 -13 -44
-33 -44 -29 0 -33 17 -8 34 25 18 32 19 41 10z m-208 -94 c-5 -8 -11 -8 -17
-2 -6 6 -7 16 -3 22 5 8 11 8 17 2 6 -6 7 -16 3 -22z m985 16 c0 -3 -4 -8 -10
-11 -5 -3 -10 -1 -10 4 0 6 5 11 10 11 6 0 10 -2 10 -4z m-1160 -31 c-7 -9
-15 -13 -17 -11 -7 7 7 26 19 26 6 0 6 -6 -2 -15z m139 -29 c10 -7 12 -6 6 4
-6 10 -4 11 6 4 8 -5 27 -9 43 -9 16 0 31 -4 33 -10 2 -6 -30 -10 -82 -10 -47
0 -85 2 -85 4 0 2 8 10 18 17 18 14 39 14 61 0z m-1239 -10 c0 -8 -4 -17 -9
-21 -12 -7 -24 12 -16 25 9 15 25 12 25 -4z m1000 -6 c0 -23 -25 -27 -33 -6
-7 16 1 26 20 26 7 0 13 -9 13 -20z m-1630 -20 c0 -5 -4 -10 -9 -10 -6 0 -13
5 -16 10 -3 6 1 10 9 10 9 0 16 -4 16 -10z m2140 -60 c0 -5 -2 -10 -4 -10 -3
0 -8 5 -11 10 -3 6 -1 10 4 10 6 0 11 -4 11 -10z m-50 -30 c0 -5 -4 -10 -10
-10 -5 0 -10 5 -10 10 0 6 5 10 10 10 6 0 10 -4 10 -10z m780 -58 c0 -14 -11
-21 -26 -15 -21 8 -17 23 6 23 11 0 20 -4 20 -8z m-880 -47 c0 -8 -4 -15 -10
-15 -5 0 -10 7 -10 15 0 8 5 15 10 15 6 0 10 -7 10 -15z m855 -5 c3 -5 -1 -10
-9 -10 -9 0 -16 5 -16 10 0 6 4 10 9 10 6 0 13 -4 16 -10z m-1291 -15 c-10 -8
-24 -15 -30 -15 -5 0 -19 -7 -30 -16 -14 -12 -15 -14 -3 -11 16 5 39 -9 39
-25 0 -4 -6 -8 -14 -8 -7 0 -19 -7 -26 -15 -9 -11 -25 -14 -52 -11 -50 6 -55
11 -35 34 10 10 17 24 17 30 0 16 47 45 60 37 5 -3 10 -1 10 4 0 6 19 11 42
11 39 0 40 -1 22 -15z m2186 -25 c0 -5 -4 -10 -10 -10 -5 0 -10 5 -10 10 0 6
5 10 10 10 6 0 10 -4 10 -10z m-2075 -80 c7 0 16 6 19 13 3 6 3 2 1 -10 -3
-12 -1 -24 5 -28 6 -3 10 3 10 14 0 12 5 21 10 21 6 0 10 -7 10 -15 0 -8 5
-15 10 -15 19 0 10 -19 -12 -26 -13 -4 -28 -14 -34 -23 -9 -11 -15 -12 -25 -4
-16 12 -59 0 -59 -17 0 -16 -51 14 -78 45 -27 31 -24 36 38 58 69 24 85 25 88
5 2 -10 9 -18 17 -18z m-285 26 c0 -3 -4 -8 -10 -11 -5 -3 -10 -1 -10 4 0 6 5
11 10 11 6 0 10 -2 10 -4z m1660 -6 c0 -5 -7 -10 -15 -10 -8 0 -15 5 -15 10 0
6 7 10 15 10 8 0 15 -4 15 -10z m-2182 -11 c-2 -6 -8 -10 -13 -10 -5 0 -11 4
-13 10 -2 6 4 11 13 11 9 0 15 -5 13 -11z m1089 -15 c-10 -10 -78 -13 -72 -3
4 5 22 9 42 9 20 0 34 -3 30 -6z m-2127 -14 c0 -5 -7 -10 -15 -10 -8 0 -15 5
-15 10 0 6 7 10 15 10 8 0 15 -4 15 -10z m835 1 c3 -5 1 -12 -5 -16 -5 -3 -10
1 -10 9 0 18 6 21 15 7z m-1125 -11 c0 -5 -4 -10 -10 -10 -5 0 -10 5 -10 10 0
6 5 10 10 10 6 0 10 -4 10 -10z m2278 -29 c3 -8 -1 -12 -9 -9 -7 2 -15 10 -17
17 -3 8 1 12 9 9 7 -2 15 -10 17 -17z m582 -31 c0 -5 -5 -10 -11 -10 -5 0 -7
5 -4 10 3 6 8 10 11 10 2 0 4 -4 4 -10z m-1024 -55 c-9 -7 -13 -15 -9 -19 4
-3 -4 -5 -18 -4 -21 3 -24 -1 -21 -26 2 -19 -1 -27 -10 -24 -7 3 -13 14 -13
26 0 11 -4 24 -8 28 -11 11 3 24 26 24 18 0 19 2 7 11 -12 8 -9 9 11 5 20 -4
29 -1 35 12 6 16 7 15 12 -2 2 -11 -3 -25 -12 -31z m624 30 c0 -8 -4 -15 -10
-15 -5 0 -10 7 -10 15 0 8 5 15 10 15 6 0 10 -7 10 -15z m-371 -20 c16 -8 31
-11 35 -8 3 4 6 1 6 -5 0 -12 -47 -52 -61 -52 -5 0 -9 7 -9 15 0 8 -4 15 -10
15 -5 0 -10 -4 -10 -10 0 -19 -18 -10 -23 11 -5 19 -10 21 -51 15 -36 -6 -46
-4 -46 7 0 7 3 17 7 20 12 13 134 7 162 -8z m-539 -49 c0 -45 -31 -61 -50 -27
-16 32 -12 41 20 41 19 0 30 -5 30 -14z m-650 -11 c0 -8 -4 -15 -9 -15 -13 0
-22 16 -14 24 11 11 23 6 23 -9z m-1265 -5 c3 -5 1 -10 -4 -10 -6 0 -11 5 -11
10 0 6 2 10 4 10 3 0 8 -4 11 -10z m2905 0 c0 -5 -7 -10 -16 -10 -8 0 -12 5
-9 10 3 6 10 10 16 10 5 0 9 -4 9 -10z m-1900 -26 c0 -17 -22 -14 -28 4 -2 7
3 12 12 12 9 0 16 -7 16 -16z m1459 -31 c-5 -13 -6 -22 -1 -20 16 9 48 20 66
24 10 2 29 12 43 23 31 24 66 11 61 -23 -2 -17 4 -22 32 -28 19 -4 36 -12 38
-18 2 -6 12 -11 23 -11 14 0 18 -6 17 -25 -1 -13 -8 -27 -15 -29 -27 -11 -14
-51 28 -87 37 -32 40 -38 30 -58 -16 -30 -6 -56 32 -83 18 -13 45 -38 61 -55
15 -18 39 -36 52 -39 13 -3 24 -10 24 -15 0 -5 9 -9 19 -9 28 0 36 -18 17 -39
-19 -21 -20 -34 -4 -79 11 -30 11 -35 -7 -48 -17 -12 -14 -18 7 -15 10 1 5
-53 -7 -61 -5 -4 -15 -2 -21 3 -8 7 -14 6 -19 -1 -3 -5 -1 -10 5 -10 6 0 8 -4
5 -10 -3 -5 3 -10 14 -10 12 0 21 5 21 11 0 21 24 2 31 -26 10 -37 -12 -81
-46 -89 -26 -7 -33 -20 -15 -31 17 -10 11 -54 -10 -75 -24 -24 -25 -30 -6 -30
18 0 22 -6 31 -49 7 -31 5 -33 -13 -28 -36 9 -73 -52 -75 -121 -2 -39 -8 -65
-22 -84 -17 -24 -28 -28 -80 -30 -33 -1 -71 -1 -85 0 -14 1 -40 2 -58 3 -17 1
-35 5 -38 10 -8 13 -62 11 -66 -2 -2 -6 -28 -15 -57 -21 -42 -7 -56 -7 -62 4
-7 10 -9 9 -9 -4 0 -11 -5 -15 -15 -12 -8 4 -15 10 -15 15 0 5 -11 26 -23 47
-20 32 -23 48 -22 115 2 43 6 81 9 84 10 11 7 51 -5 59 -7 4 -26 8 -44 9 -26
1 -36 -4 -49 -26 -9 -15 -16 -42 -16 -61 l-1 -33 -19 23 c-14 18 -24 21 -36
14 -21 -12 -54 -4 -54 12 0 7 -14 39 -30 72 -25 47 -30 66 -25 97 5 24 3 37
-4 37 -19 0 -115 70 -144 106 -16 18 -33 33 -39 31 -5 -1 -15 7 -21 18 -6 11
-19 32 -29 47 -22 33 -23 45 -3 28 22 -18 38 0 29 34 -4 18 -19 33 -43 44 -20
9 -36 24 -36 32 -1 22 -15 60 -24 60 -4 0 -8 17 -9 38 -3 53 -13 134 -19 156
-3 12 -1 17 8 14 8 -3 13 -14 11 -25 -1 -11 5 -26 14 -34 16 -13 17 -10 11 39
-8 65 10 78 48 35 l25 -28 18 24 19 23 16 -35 c10 -19 17 -39 17 -45 0 -11 44
-42 59 -42 5 0 25 -14 43 -30 18 -17 45 -36 61 -43 29 -13 31 -16 21 -41 -8
-20 -54 -21 -80 -1 -29 22 -41 18 -58 -17 -25 -49 -21 -84 14 -110 17 -12 40
-38 52 -58 14 -24 22 -30 25 -20 3 8 11 30 19 48 13 27 19 31 40 26 31 -8 114
23 114 42 0 40 -43 83 -83 84 -38 0 -31 18 19 52 21 14 39 32 39 40 0 7 6 19
12 26 21 22 26 62 12 88 -16 30 -33 17 -35 -26 -3 -75 1 -70 -59 -70 -60 0
-68 7 -68 59 0 56 8 80 30 92 13 7 23 20 23 30 0 32 21 64 62 92 22 16 37 22
34 15 -4 -7 -1 -6 5 3 11 15 15 14 39 -10 15 -14 32 -36 39 -49 6 -12 16 -22
21 -22 15 0 24 70 11 83 -15 15 -14 27 4 27 8 0 20 -10 26 -22 8 -14 14 -18
17 -10 2 6 9 12 15 12 6 0 26 17 44 37 27 28 36 34 43 23 4 -7 4 -24 -1 -37z
m2121 17 c0 -5 -2 -10 -4 -10 -3 0 -8 5 -11 10 -3 6 -1 10 4 10 6 0 11 -4 11
-10z m-1350 -20 c0 -5 -4 -10 -10 -10 -5 0 -10 5 -10 10 0 6 5 10 10 10 6 0
10 -4 10 -10z m-1780 -10 c0 -5 -4 -10 -10 -10 -5 0 -10 5 -10 10 0 6 5 10 10
10 6 0 10 -4 10 -10z m2746 -31 c9 -16 -18 -30 -33 -17 -7 6 -10 14 -7 19 7
13 31 11 40 -2z m252 -7 c2 -7 -3 -12 -12 -12 -9 0 -16 7 -16 16 0 17 22 14
28 -4z m-370 -15 c2 -12 -3 -17 -17 -17 -12 0 -21 6 -21 13 0 31 32 34 38 4z
m-2079 -16 c11 -7 11 -13 -3 -32 -9 -13 -16 -21 -17 -19 -9 64 -7 68 20 51z
m2021 -51 c0 -5 -5 -10 -11 -10 -5 0 -7 5 -4 10 3 6 8 10 11 10 2 0 4 -4 4
-10z m-90 -40 c0 -5 -4 -10 -10 -10 -5 0 -10 5 -10 10 0 6 5 10 10 10 6 0 10
-4 10 -10z m-1915 -51 c10 -15 -1 -23 -20 -15 -9 3 -13 10 -10 16 8 13 22 13
30 -1z m1405 -65 c0 -25 -28 -36 -54 -22 -20 11 -21 36 0 59 15 16 17 16 35 1
10 -9 19 -26 19 -38z m1410 36 c0 -5 -7 -10 -16 -10 -8 0 -12 5 -9 10 3 6 10
10 16 10 5 0 9 -4 9 -10z m-215 -10 c3 -5 1 -10 -4 -10 -6 0 -11 5 -11 10 0 6
2 10 4 10 3 0 8 -4 11 -10z m-1150 -28 c-3 -3 -11 0 -18 7 -9 10 -8 11 6 5 10
-3 15 -9 12 -12z m360 -12 c3 -5 1 -10 -4 -10 -6 0 -11 5 -11 10 0 6 2 10 4
10 3 0 8 -4 11 -10z m-2475 -20 c0 -5 -2 -10 -4 -10 -3 0 -8 5 -11 10 -3 6 -1
10 4 10 6 0 11 -4 11 -10z m-570 -35 c0 -8 -4 -15 -9 -15 -13 0 -22 16 -14 24
11 11 23 6 23 -9z m3460 -11 c0 -8 -5 -12 -10 -9 -6 4 -8 11 -5 16 9 14 15 11
15 -7z m-952 -22 c2 -7 -3 -12 -12 -12 -9 0 -16 7 -16 16 0 17 22 14 28 -4z
m1617 -22 c3 -5 1 -10 -4 -10 -6 0 -11 5 -11 10 0 6 2 10 4 10 3 0 8 -4 11
-10z m-4085 -15 c0 -8 -4 -15 -9 -15 -5 0 -11 7 -15 15 -3 9 0 15 9 15 8 0 15
-7 15 -15z m2218 -8 c2 -12 -3 -17 -17 -17 -15 0 -21 6 -21 21 0 25 33 22 38
-4z m1067 3 c3 -5 -1 -10 -9 -10 -9 0 -16 5 -16 10 0 6 4 10 9 10 6 0 13 -4
16 -10z m865 -15 c0 -8 -7 -15 -15 -15 -8 0 -15 7 -15 15 0 8 7 15 15 15 8 0
15 -7 15 -15z m-3922 -18 c2 -12 -3 -17 -17 -17 -12 0 -21 6 -21 13 0 31 32
34 38 4z m677 -6 c3 -5 1 -13 -5 -16 -15 -9 -43 3 -35 15 8 13 32 13 40 1z
m1415 -1 c0 -5 -4 -10 -10 -10 -5 0 -10 5 -10 10 0 6 5 10 10 10 6 0 10 -4 10
-10z m-3520 -4 c0 -16 -29 -55 -35 -47 -10 16 4 51 21 51 8 0 14 -2 14 -4z
m-50 -56 c0 -13 -7 -20 -20 -20 -19 0 -27 20 -13 33 13 14 33 6 33 -13z m1837
4 c8 -21 -13 -42 -28 -27 -13 13 -5 43 11 43 6 0 13 -7 17 -16z m224 -9 c-1
-15 -24 -12 -29 3 -3 9 2 13 12 10 10 -1 17 -7 17 -13z m-2026 -45 c-12 -19
-22 -10 -17 16 4 22 6 24 14 10 5 -9 6 -21 3 -26z m2205 -110 c0 -5 -7 -10
-15 -10 -8 0 -15 5 -15 10 0 6 7 10 15 10 8 0 15 -4 15 -10z m-2135 -40 c3 -5
-3 -10 -15 -10 -12 0 -18 5 -15 10 3 6 10 10 15 10 5 0 12 -4 15 -10z m965 -5
c0 -8 -6 -15 -14 -15 -17 0 -28 14 -19 24 12 12 33 6 33 -9z m2575 5 c3 -5 -1
-10 -10 -10 -9 0 -13 5 -10 10 3 6 8 10 10 10 2 0 7 -4 10 -10z m-85 -20 c0
-5 -2 -10 -4 -10 -3 0 -8 5 -11 10 -3 6 -1 10 4 10 6 0 11 -4 11 -10z m-1510
-20 c0 -5 -4 -10 -10 -10 -5 0 -10 5 -10 10 0 6 5 10 10 10 6 0 10 -4 10 -10z
m1520 -40 c0 -5 -4 -10 -10 -10 -5 0 -10 5 -10 10 0 6 5 10 10 10 6 0 10 -4
10 -10z m580 -20 c0 -5 -4 -10 -9 -10 -6 0 -13 5 -16 10 -3 6 1 10 9 10 9 0
16 -4 16 -10z m-2610 -11 c0 -10 -24 -39 -33 -39 -2 0 -2 11 1 25 4 24 32 36
32 14z m650 1 c0 -5 -2 -10 -4 -10 -3 0 -8 5 -11 10 -3 6 -1 10 4 10 6 0 11
-4 11 -10z m1235 0 c3 -5 1 -10 -4 -10 -6 0 -11 5 -11 10 0 6 2 10 4 10 3 0 8
-4 11 -10z m55 1 c0 -6 -4 -13 -10 -16 -5 -3 -10 1 -10 9 0 9 5 16 10 16 6 0
10 -4 10 -9z m-3135 -21 c3 -5 1 -10 -4 -10 -6 0 -11 5 -11 10 0 6 2 10 4 10
3 0 8 -4 11 -10z m1450 -20 c-5 -8 -11 -8 -17 -2 -6 6 -7 16 -3 22 5 8 11 8
17 2 6 -6 7 -16 3 -22z m2195 20 c0 -5 -4 -10 -10 -10 -5 0 -10 5 -10 10 0 6
5 10 10 10 6 0 10 -4 10 -10z m1390 -15 c0 -8 -9 -15 -20 -15 -11 0 -20 7 -20
15 0 8 9 15 20 15 11 0 20 -7 20 -15z m-505 -15 c3 -5 -1 -10 -9 -10 -9 0 -16
5 -16 10 0 6 4 10 9 10 6 0 13 -4 16 -10z m-4625 -10 c0 -5 -4 -10 -10 -10 -5
0 -10 5 -10 10 0 6 5 10 10 10 6 0 10 -4 10 -10z m4000 0 c0 -5 -4 -10 -9 -10
-6 0 -13 5 -16 10 -3 6 1 10 9 10 9 0 16 -4 16 -10z m-47 -25 c-7 -21 -13 -19
-13 6 0 11 4 18 10 14 5 -3 7 -12 3 -20z m-4020 -19 c7 -16 -1 -26 -20 -26 -7
0 -13 9 -13 20 0 23 25 27 33 6z m1997 -6 c15 -15 20 -33 20 -72 0 -47 3 -54
43 -92 52 -51 66 -75 57 -101 -7 -19 -7 -19 -19 3 -6 12 -18 22 -26 22 -18 0
-20 -31 -3 -48 15 -15 11 -18 -40 -25 -39 -5 -44 -3 -72 31 -17 20 -30 42 -30
49 0 7 -5 13 -11 13 -7 0 -9 -11 -6 -29 l6 -29 -39 19 c-50 24 -60 24 -60 -3
0 -21 -7 -23 -10 -3 -1 6 -6 18 -12 29 -8 14 -4 24 18 47 29 30 26 55 -3 26
-16 -15 -18 -15 -36 1 -19 17 -19 16 -12 -43 5 -36 14 -65 24 -72 14 -11 14
-12 -4 -13 -11 -1 -14 -4 -7 -7 14 -5 17 -33 3 -33 -5 0 -11 -9 -14 -20 -7
-26 -47 -27 -47 -1 0 10 -3 32 -6 49 -5 25 -2 31 16 37 21 7 21 8 4 26 -19 21
-21 76 -4 140 11 39 64 85 94 80 10 -1 27 7 37 18 27 29 110 30 139 1z m-710
-5 c0 -8 -4 -15 -10 -15 -5 0 -10 7 -10 15 0 8 5 15 10 15 6 0 10 -7 10 -15z
m100 5 c0 -5 -2 -10 -4 -10 -3 0 -8 5 -11 10 -3 6 -1 10 4 10 6 0 11 -4 11
-10z m90 0 c0 -5 -2 -10 -4 -10 -3 0 -8 5 -11 10 -3 6 -1 10 4 10 6 0 11 -4
11 -10z m2550 -10 c0 -5 -4 -10 -10 -10 -5 0 -10 5 -10 10 0 6 5 10 10 10 6 0
10 -4 10 -10z m-2525 -20 c3 -5 -1 -10 -9 -10 -9 0 -16 5 -16 10 0 6 4 10 9
10 6 0 13 -4 16 -10z m3463 -13 c4 -20 -25 -34 -39 -20 -14 14 1 45 20 41 9
-2 17 -11 19 -21z m-3278 -12 c0 -8 -2 -15 -4 -15 -2 0 -6 7 -10 15 -3 8 -1
15 4 15 6 0 10 -7 10 -15z m2640 5 c0 -5 -2 -10 -4 -10 -3 0 -8 5 -11 10 -3 6
-1 10 4 10 6 0 11 -4 11 -10z m-1010 -10 c0 -5 -4 -10 -10 -10 -5 0 -10 5 -10
10 0 6 5 10 10 10 6 0 10 -4 10 -10z m1860 -10 c0 -5 -2 -10 -4 -10 -3 0 -8 5
-11 10 -3 6 -1 10 4 10 6 0 11 -4 11 -10z m-860 -10 c0 -5 -4 -10 -10 -10 -5
0 -10 5 -10 10 0 6 5 10 10 10 6 0 10 -4 10 -10z m820 -11 c0 -6 -4 -7 -10 -4
-5 3 -10 11 -10 16 0 6 5 7 10 4 6 -3 10 -11 10 -16z m-1525 -9 c3 -5 1 -10
-4 -10 -6 0 -11 5 -11 10 0 6 2 10 4 10 3 0 8 -4 11 -10z m-345 -21 c0 -5 -7
-9 -15 -9 -15 0 -20 12 -9 23 8 8 24 -1 24 -14z m-3518 -54 c-10 -22 -18 -26
-45 -23 -28 3 -32 7 -32 33 0 21 7 33 25 42 22 11 28 10 44 -7 17 -16 18 -23
8 -45z m1598 40 c0 -8 -4 -15 -10 -15 -5 0 -10 7 -10 15 0 8 5 15 10 15 6 0
10 -7 10 -15z m-274 -16 c10 -17 -13 -36 -27 -22 -12 12 -4 33 11 33 5 0 12
-5 16 -11z m1434 -10 c0 -5 -4 -9 -10 -9 -5 0 -10 7 -10 16 0 8 5 12 10 9 6
-3 10 -10 10 -16z m710 1 c0 -5 -4 -10 -10 -10 -5 0 -10 5 -10 10 0 6 5 10 10
10 6 0 10 -4 10 -10z m-2610 -10 c0 -5 -4 -10 -10 -10 -5 0 -10 5 -10 10 0 6
5 10 10 10 6 0 10 -4 10 -10z m-340 -44 c0 -3 -4 -8 -10 -11 -5 -3 -10 -1 -10
4 0 6 5 11 10 11 6 0 10 -2 10 -4z m3385 -16 c3 -5 1 -10 -4 -10 -6 0 -11 5
-11 10 0 6 2 10 4 10 3 0 8 -4 11 -10z m1425 -5 c0 -8 -7 -15 -15 -15 -8 0
-15 7 -15 15 0 8 7 15 15 15 8 0 15 -7 15 -15z m-3472 -7 c-3 -7 -11 -13 -18
-13 -7 0 -15 6 -17 13 -3 7 4 12 17 12 13 0 20 -5 18 -12z m-1398 -8 c0 -5 -5
-10 -11 -10 -5 0 -7 5 -4 10 3 6 8 10 11 10 2 0 4 -4 4 -10z m3230 -20 c0 -5
-4 -10 -10 -10 -5 0 -10 5 -10 10 0 6 5 10 10 10 6 0 10 -4 10 -10z m-2150
-20 c0 -5 -4 -10 -10 -10 -5 0 -10 5 -10 10 0 6 5 10 10 10 6 0 10 -4 10 -10z
m2178 -18 c2 -7 -3 -12 -12 -12 -9 0 -16 7 -16 16 0 17 22 14 28 -4z m1352 3
c0 -8 -9 -15 -20 -15 -11 0 -20 7 -20 15 0 8 9 15 20 15 11 0 20 -7 20 -15z
m-1535 -5 c3 -5 -1 -10 -9 -10 -9 0 -16 5 -16 10 0 6 4 10 9 10 6 0 13 -4 16
-10z m1795 -6 c0 -9 -7 -14 -17 -12 -25 5 -28 28 -4 28 12 0 21 -6 21 -16z
m-1870 2 c0 -11 -19 -15 -25 -6 -3 5 1 10 9 10 9 0 16 -2 16 -4z m1658 -14 c2
-7 -3 -12 -12 -12 -9 0 -16 7 -16 16 0 17 22 14 28 -4z m-1763 -22 c3 -5 -1
-10 -10 -10 -9 0 -13 5 -10 10 3 6 8 10 10 10 2 0 7 -4 10 -10z m1840 -30 c3
-5 1 -10 -4 -10 -6 0 -11 5 -11 10 0 6 2 10 4 10 3 0 8 -4 11 -10z m-2324 -10
c16 -9 19 -22 19 -80 0 -63 2 -70 20 -70 21 0 27 -15 10 -25 -12 -7 -50 12
-50 26 0 5 -10 20 -21 32 -12 12 -30 40 -40 62 -17 37 -17 40 -1 43 9 2 21 8
27 13 11 11 12 11 36 -1z m2229 0 c0 -5 -4 -10 -10 -10 -5 0 -10 5 -10 10 0 6
5 10 10 10 6 0 10 -4 10 -10z m-3140 -25 c0 -8 -4 -15 -10 -15 -5 0 -10 7 -10
15 0 8 5 15 10 15 6 0 10 -7 10 -15z m1825 -5 c3 -5 1 -10 -4 -10 -6 0 -11 5
-11 10 0 6 2 10 4 10 3 0 8 -4 11 -10z m-675 -38 c16 3 30 1 30 -4 0 -4 19
-26 42 -49 36 -35 46 -40 74 -35 21 5 35 2 44 -9 7 -8 27 -15 44 -16 17 0 46
-6 65 -13 25 -9 47 -9 83 -2 37 8 54 7 70 -3 17 -11 22 -11 29 0 6 10 11 7 18
-11 5 -14 10 -19 10 -12 2 26 26 11 26 -17 0 -25 -2 -28 -22 -20 -17 6 -23 4
-28 -11 -7 -23 -8 -23 -184 -22 -104 1 -126 -1 -136 -15 -19 -25 -49 -9 -41
22 4 17 2 25 -7 25 -8 0 -20 12 -28 26 -7 14 -32 39 -54 54 -22 15 -49 37 -59
49 -11 11 -24 21 -31 21 -7 0 -10 11 -7 30 3 25 7 28 18 19 8 -6 27 -9 44 -7z
m-570 -6 c0 -11 -19 -15 -25 -6 -3 5 1 10 9 10 9 0 16 -2 16 -4z m-880 -26 c0
-5 -4 -10 -10 -10 -5 0 -10 5 -10 10 0 6 5 10 10 10 6 0 10 -4 10 -10z m1590
-5 c0 -8 -4 -15 -10 -15 -5 0 -10 7 -10 15 0 8 5 15 10 15 6 0 10 -7 10 -15z
m-545 -44 c8 -27 5 -36 -13 -36 -21 -1 -32 13 -32 42 0 16 5 20 20 16 10 -3
22 -13 25 -22z m-380 9 c3 -5 1 -10 -4 -10 -6 0 -11 5 -11 10 0 6 2 10 4 10 3
0 8 -4 11 -10z m1655 -10 c0 -5 -4 -10 -10 -10 -5 0 -10 5 -10 10 0 6 5 10 10
10 6 0 10 -4 10 -10z m-3430 -10 c0 -5 -4 -10 -10 -10 -5 0 -10 5 -10 10 0 6
5 10 10 10 6 0 10 -4 10 -10z m616 -17 c-10 -10 -19 5 -10 18 6 11 8 11 12 0
2 -7 1 -15 -2 -18z m1704 3 c0 -8 7 -16 15 -20 8 -3 15 -12 15 -21 0 -18 -16
-20 -23 -2 -4 9 -8 8 -16 -3 -10 -13 -11 -13 -11 0 0 8 -3 25 -6 38 -5 16 -2
22 10 22 9 0 16 -6 16 -14z m-1780 -16 c0 -5 -5 -10 -11 -10 -5 0 -7 5 -4 10
3 6 8 10 11 10 2 0 4 -4 4 -10z m1666 -16 c-3 -9 -6 -20 -6 -25 0 -5 -4 -9
-10 -9 -5 0 -10 11 -10 25 0 16 6 25 16 25 11 0 14 -5 10 -16z m1224 6 c0 -5
-4 -10 -10 -10 -5 0 -10 5 -10 10 0 6 5 10 10 10 6 0 10 -4 10 -10z m-3620
-75 c0 -8 -7 -15 -15 -15 -8 0 -15 7 -15 15 0 8 7 15 15 15 8 0 15 -7 15 -15z
m-193 -11 c-3 -3 -12 -4 -19 -1 -8 3 -5 6 6 6 11 1 17 -2 13 -5z m3113 -54 c0
-5 -2 -10 -4 -10 -3 0 -8 5 -11 10 -3 6 -1 10 4 10 6 0 11 -4 11 -10z m600 0
c0 -5 -2 -10 -4 -10 -3 0 -8 5 -11 10 -3 6 -1 10 4 10 6 0 11 -4 11 -10z
m1395 -10 c3 -5 1 -10 -4 -10 -6 0 -11 5 -11 10 0 6 2 10 4 10 3 0 8 -4 11
-10z m-945 -30 c0 -5 -7 -10 -15 -10 -8 0 -15 5 -15 10 0 6 7 10 15 10 8 0 15
-4 15 -10z m795 0 c3 -5 1 -10 -4 -10 -6 0 -11 5 -11 10 0 6 2 10 4 10 3 0 8
-4 11 -10z m-4468 -32 c-3 -8 -6 -5 -6 6 -1 11 2 17 5 13 3 -3 4 -12 1 -19z
m2063 -23 c0 -8 -7 -15 -15 -15 -8 0 -15 7 -15 15 0 8 7 15 15 15 8 0 15 -7
15 -15z m1365 -20 c0 -25 -40 -33 -49 -10 -9 24 2 37 27 33 14 -2 22 -10 22
-23z m-3070 -104 c7 -12 -12 -24 -25 -16 -11 7 -4 25 10 25 5 0 11 -4 15 -9z
m3247 -26 c0 -5 -5 -11 -11 -13 -6 -2 -11 4 -11 13 0 9 5 15 11 13 6 -2 11 -8
11 -13z m98 -45 c0 -5 -2 -10 -4 -10 -3 0 -8 5 -11 10 -3 6 -1 10 4 10 6 0 11
-4 11 -10z m-1920 -50 c0 -5 -4 -10 -10 -10 -5 0 -10 5 -10 10 0 6 5 10 10 10
6 0 10 -4 10 -10z m725 -40 c3 -5 -1 -10 -9 -10 -9 0 -16 5 -16 10 0 6 4 10 9
10 6 0 13 -4 16 -10z m-2045 -30 c0 -5 -2 -10 -4 -10 -3 0 -8 5 -11 10 -3 6
-1 10 4 10 6 0 11 -4 11 -10z m3310 -10 c0 -5 -7 -10 -15 -10 -8 0 -15 5 -15
10 0 6 7 10 15 10 8 0 15 -4 15 -10z m-280 -151 c7 -11 9 -27 6 -35 -8 -20
-46 -14 -60 9 -9 15 -7 21 8 33 26 19 33 18 46 -7z m220 -159 c0 -5 -5 -10
-11 -10 -5 0 -7 5 -4 10 3 6 8 10 11 10 2 0 4 -4 4 -10z m-1530 -15 c0 -8 -7
-15 -15 -15 -8 0 -15 7 -15 15 0 8 7 15 15 15 8 0 15 -7 15 -15z m-85 -115
c-5 -8 -11 -8 -17 -2 -6 6 -7 16 -3 22 5 8 11 8 17 2 6 -6 7 -16 3 -22z
m-1419 -1 c10 -17 -13 -36 -27 -22 -12 12 -4 33 11 33 5 0 12 -5 16 -11z
m3469 -59 c3 -5 1 -10 -4 -10 -6 0 -11 5 -11 10 0 6 2 10 4 10 3 0 8 -4 11
-10z m-35 -41 c0 -20 -24 -26 -35 -9 -4 6 -4 17 -1 25 7 20 36 7 36 -16z
m-3545 -9 c3 -5 -1 -10 -9 -10 -9 0 -16 5 -16 10 0 6 4 10 9 10 6 0 13 -4 16
-10z m3245 0 c0 -5 -4 -10 -10 -10 -5 0 -10 5 -10 10 0 6 5 10 10 10 6 0 10
-4 10 -10z m-2070 -10 c0 -5 -7 -10 -15 -10 -8 0 -15 5 -15 10 0 6 7 10 15 10
8 0 15 -4 15 -10z m780 -40 c0 -5 -7 -10 -15 -10 -8 0 -15 5 -15 10 0 6 7 10
15 10 8 0 15 -4 15 -10z m-2765 -30 c3 -5 1 -10 -4 -10 -6 0 -11 5 -11 10 0 6
2 10 4 10 3 0 8 -4 11 -10z m146 -33 c-13 -13 -26 -3 -16 12 3 6 11 8 17 5 6
-4 6 -10 -1 -17z m4879 -7 c0 -5 -5 -10 -11 -10 -5 0 -7 5 -4 10 3 6 8 10 11
10 2 0 4 -4 4 -10z m-4505 -150 c3 -5 1 -10 -4 -10 -6 0 -11 5 -11 10 0 6 2
10 4 10 3 0 8 -4 11 -10z m2253 -11 c-2 -6 -8 -10 -13 -10 -5 0 -11 4 -13 10
-2 6 4 11 13 11 9 0 15 -5 13 -11z m-1671 -325 c-9 -9 -28 6 -21 18 4 6 10 6
17 -1 6 -6 8 -13 4 -17z m2313 -44 c0 -5 -4 -10 -10 -10 -5 0 -10 5 -10 10 0
6 5 10 10 10 6 0 10 -4 10 -10z"/>
<path d="M3000 3559 c0 -5 5 -7 10 -4 6 3 10 8 10 11 0 2 -4 4 -10 4 -5 0 -10
-5 -10 -11z"/>
<path d="M3058 3563 c7 -3 16 -2 19 1 4 3 -2 6 -13 5 -11 0 -14 -3 -6 -6z"/>
<path d="M3018 3443 c7 -3 16 -2 19 1 4 3 -2 6 -13 5 -11 0 -14 -3 -6 -6z"/>
<path d="M3136 3292 c6 -4 14 -14 17 -22 4 -10 6 -8 6 8 1 15 -5 22 -16 22
-11 0 -14 -3 -7 -8z"/>
<path d="M3060 3240 c8 -5 10 -10 5 -10 -19 0 -3 -94 17 -98 23 -4 69 43 55
57 -8 8 -6 11 7 11 12 0 16 6 14 23 -3 19 -9 22 -58 24 -38 2 -50 0 -40 -7z"/>
<path d="M2836 3191 c-4 -7 -5 -15 -2 -18 9 -9 19 4 14 18 -4 11 -6 11 -12 0z"/>
<path d="M3168 3173 c6 -2 18 -2 25 0 6 3 1 5 -13 5 -14 0 -19 -2 -12 -5z"/>
<path d="M2825 3146 l-30 -12 34 -7 c34 -7 66 7 55 24 -7 12 -23 11 -59 -5z"/>
<path d="M2422 3030 c0 -14 2 -19 5 -12 2 6 2 18 0 25 -3 6 -5 1 -5 -13z"/>
<path d="M3520 2860 c0 -5 7 -10 15 -10 8 0 15 5 15 10 0 6 -7 10 -15 10 -8 0
-15 -4 -15 -10z"/>
<path d="M2400 2826 c0 -9 5 -16 10 -16 6 0 10 4 10 9 0 6 -4 13 -10 16 -5 3
-10 -1 -10 -9z"/>
<path d="M3105 2571 c-3 -5 -1 -12 5 -16 5 -3 10 1 10 9 0 18 -6 21 -15 7z"/>
<path d="M3405 2571 c-3 -6 -17 -8 -31 -5 -20 5 -24 2 -24 -15 0 -12 6 -21 14
-21 18 0 63 36 55 45 -4 3 -10 2 -14 -4z"/>
<path d="M2697 2432 c1 -8 3 -16 3 -18 0 -2 7 -4 15 -4 8 0 15 5 15 10 0 6 -6
10 -14 10 -8 0 -16 3 -19 8 -2 4 -2 1 0 -6z"/>
<path d="M2187 2323 c-12 -12 -7 -50 8 -63 13 -11 15 -8 15 16 0 32 -13 58
-23 47z"/>
<path d="M2220 2140 c0 -5 5 -10 11 -10 5 0 7 5 4 10 -3 6 -8 10 -11 10 -2 0
-4 -4 -4 -10z"/>
<path d="M2331 2141 c-14 -9 -9 -41 7 -41 15 0 34 28 27 40 -8 12 -16 13 -34
1z"/>
<path d="M3230 1850 c0 -5 5 -10 11 -10 5 0 7 5 4 10 -3 6 -8 10 -11 10 -2 0
-4 -4 -4 -10z"/>
</g>
</svg>
